<svg xmlns="http://www.w3.org/2000/svg" version="1.1" xmlns:xlink="http://www.w3.org/1999/xlink" xmlns:svgjs="http://svgjs.dev/svgjs" width="1500" height="935" viewBox="0 0 1500 935"><g transform="matrix(1,0,0,1,-0.9090909090909918,0.3785425101214628)"><svg viewBox="0 0 396 247" data-background-color="#2e024e" preserveAspectRatio="xMidYMid meet" height="935" width="1500" xmlns="http://www.w3.org/2000/svg" xmlns:xlink="http://www.w3.org/1999/xlink"><g id="tight-bounds" transform="matrix(1,0,0,1,0.2400000000000091,-0.09999999999999432)"><svg viewBox="0 0 395.52 247.2" height="247.2" width="395.52"><g><svg></svg></g><g><svg viewBox="0 0 395.52 247.2" height="247.2" width="395.52"><g transform="matrix(1,0,0,1,65.76614107883819,37.08)"><svg viewBox="0 0 263.9877178423236 173.04" height="173.04" width="263.9877178423236"><g><svg viewBox="0 0 263.9877178423236 173.04" height="173.04" width="263.9877178423236"><g><svg viewBox="0 0 263.9877178423236 173.04" height="173.04" width="263.9877178423236"><g><svg viewBox="0 0 263.9877178423236 173.04" height="173.04" width="263.9877178423236"><g id="textblocktransform"><svg viewBox="0 0 263.9877178423236 173.04" height="173.04" width="263.9877178423236" id="textblock"><g><svg viewBox="0 0 263.9877178423236 173.04" height="173.04" width="263.9877178423236"><g transform="matrix(1,0,0,1,0,0)"><svg width="263.9877178423236" viewBox="4.05 -35.45 55.150000000000006 36.150000000000006" height="173.04" data-palette-color="#d579ff"><path d="M13 0L4.05 0 4.05-34.85 13.05-34.85Q20.63-34.85 24.74-30.61 28.85-26.38 28.85-17.85L28.85-17.85Q28.85-12.4 27.03-8.39 25.2-4.38 21.66-2.19 18.13 0 13 0L13 0ZM12.85-29.85L12.85-29.85 10.5-29.85 10.5-5.5 12.85-5.5Q15.6-5.5 17.43-6.54 19.25-7.58 20.34-9.31 21.43-11.05 21.89-13.24 22.35-15.43 22.35-17.7L22.35-17.7Q22.35-20.85 21.48-23.63 20.6-26.4 18.53-28.13 16.45-29.85 12.85-29.85ZM59.2 0.7L58.7 0.7 42-18.35 40.45-20.35 40.7-15.5 40.7 0 34.55 0 34.55-35.45 35.1-35.45 51.55-16.25 53.3-13.98 53.05-18.75 53.05-34.85 59.2-34.85 59.2 0.7Z" opacity="1" transform="matrix(1,0,0,1,0,0)" fill="#d579ff" class="wordmark-text-0" data-fill-palette-color="primary" id="text-0"></path></svg></g></svg></g></svg></g></svg></g></svg></g></svg></g></svg></g><g><path d="M0 247.2v-247.2h395.52v247.2zM379.915 231.595v-215.99h-364.31v215.99z" fill="#d579ff" fill-rule="nonzero" stroke="none" stroke-width="1" stroke-linecap="butt" stroke-linejoin="miter" stroke-miterlimit="10" stroke-dasharray="" stroke-dashoffset="0" font-family="none" font-weight="none" font-size="none" text-anchor="none" style="mix-blend-mode: normal" data-fill-palette-color="tertiary"></path></g></svg></g><defs></defs></svg><rect width="395.52" height="247.2" fill="none" stroke="none" visibility="hidden"></rect></g></svg></g></svg>